<?xml version="1.0" standalone="no"?>
<!DOCTYPE svg PUBLIC "-//W3C//DTD SVG 20010904//EN"
 "http://www.w3.org/TR/2001/REC-SVG-20010904/DTD/svg10.dtd">
<svg version="1.0" xmlns="http://www.w3.org/2000/svg"
 width="500.000000pt" height="500.000000pt" viewBox="0 0 500.000000 500.000000"
 preserveAspectRatio="xMidYMid meet">

<g transform="translate(0.000000,500.000000) scale(0.100000,-0.100000)"
fill="#000000" stroke="none">
<path d="M0 2495 l0 -2495 2500 0 2500 0 0 2495 0 2495 -2500 0 -2500 0 0
-2495z m3353 1086 c323 -73 609 -300 752 -595 212 -437 121 -953 -228 -1293
-397 -387 -1014 -429 -1452 -98 -48 36 -88 65 -91 65 -2 0 -4 -77 -4 -171 l0
-172 -84 6 c-215 17 -442 125 -610 291 -120 118 -226 286 -282 446 l-23 65 0
-140 c-1 -77 -4 -170 -8 -208 -5 -62 -8 -68 -32 -73 -14 -3 -55 -15 -91 -26
l-65 -20 -52 56 c-197 211 -303 482 -303 771 0 318 119 597 351 824 60 59 88
78 130 91 l54 17 7 -51 c3 -28 7 -152 8 -276 l1 -225 24 67 c71 202 219 405
385 528 67 49 178 113 218 125 21 6 82 -13 82 -26 0 -4 14 -12 30 -19 17 -7
30 -16 30 -20 0 -4 14 -13 30 -20 17 -7 30 -16 30 -21 0 -5 5 -9 10 -9 6 0 44
-23 85 -50 65 -44 75 -55 75 -80 0 -35 10 -38 36 -9 31 34 203 145 277 178 90
41 191 71 291 87 107 18 305 10 419 -15z"/>
<path d="M1946 2643 c-4 -71 -8 -147 -10 -170 -3 -39 -1 -43 19 -43 22 0 24 5
30 88 3 48 7 98 8 112 1 17 13 -6 36 -67 29 -80 37 -93 56 -93 21 0 27 12 56
98 19 53 34 88 36 77 1 -11 5 -64 8 -117 7 -96 7 -98 32 -98 24 0 24 2 19 53
-3 28 -8 105 -12 170 l-6 118 -31 -3 c-29 -3 -32 -7 -67 -113 l-37 -110 -37
113 c-36 107 -39 112 -66 112 l-28 0 -6 -127z"/>
<path d="M2327 2750 c-31 -25 -47 -75 -47 -150 0 -108 37 -170 101 -170 75 0
109 53 109 170 0 117 -34 170 -109 170 -16 0 -40 -9 -54 -20z m79 -18 c24 -16
34 -54 34 -131 0 -44 -5 -91 -12 -105 -16 -36 -46 -43 -72 -17 -19 19 -21 33
-21 120 0 83 3 102 19 120 20 22 34 26 52 13z"/>
<path d="M2520 2756 c0 -7 16 -80 35 -162 19 -82 35 -152 35 -156 0 -5 15 -8
33 -8 l34 0 36 159 c20 88 37 165 37 171 0 6 -10 10 -22 8 -19 -3 -25 -18 -51
-141 -16 -76 -31 -136 -33 -134 -2 1 -15 57 -29 122 -14 66 -28 128 -31 138
-6 20 -44 23 -44 3z"/>
<path d="M2770 2623 c0 -168 4 -193 31 -193 18 0 19 10 19 170 l0 170 -25 0
-25 0 0 -147z"/>
<path d="M2880 2600 l0 -170 85 0 c69 0 85 3 85 15 0 12 -13 15 -60 15 l-60 0
0 65 0 65 50 0 c38 0 50 4 50 15 0 11 -12 15 -50 15 l-50 0 0 60 0 60 60 0
c47 0 60 3 60 15 0 12 -16 15 -85 15 l-85 0 0 -170z"/>
<path d="M3112 2762 c-9 -6 -12 -47 -10 -168 l3 -159 56 -3 c92 -5 129 42 129
168 0 70 -15 122 -40 145 -22 20 -116 32 -138 17z m102 -38 c22 -21 31 -58 31
-124 0 -99 -23 -140 -76 -140 l-29 0 0 140 0 140 29 0 c16 0 37 -7 45 -16z"/>
<path d="M3356 2613 c-22 -87 -41 -164 -44 -170 -2 -8 5 -13 21 -13 20 0 26 6
33 43 l9 42 50 0 49 0 9 -42 c7 -36 12 -43 31 -43 l24 0 -24 98 c-64 269 -54
242 -89 242 l-31 0 -38 -157z m88 24 c21 -89 21 -87 -19 -87 -25 0 -35 4 -35
15 0 20 32 147 36 143 1 -2 10 -34 18 -71z"/>
<path d="M3530 2755 c0 -10 11 -15 35 -15 l35 0 0 -155 0 -155 25 0 25 0 0
155 0 155 35 0 c24 0 35 5 35 15 0 12 -17 15 -95 15 -78 0 -95 -3 -95 -15z"/>
<path d="M3760 2600 l0 -170 85 0 c69 0 85 3 85 15 0 12 -13 15 -60 15 l-60 0
0 65 0 65 50 0 c38 0 50 4 50 15 0 11 -12 15 -49 15 l-49 0 -7 50 c-4 27 -4
54 0 60 3 5 33 10 66 10 44 0 60 3 57 13 -3 8 -32 13 -86 15 l-82 3 0 -171z"/>
</g>
</svg>
